<?xml version="1.0" encoding="iso-8859-1"?>
<!-- Uploaded to: SVG Repo, www.svgrepo.com, Generator: SVG Repo Mixer Tools -->
<!DOCTYPE svg PUBLIC "-//W3C//DTD SVG 1.1//EN" "http://www.w3.org/Graphics/SVG/1.1/DTD/svg11.dtd">
<svg fill="#000000" version="1.1" id="Capa_1" xmlns="http://www.w3.org/2000/svg" xmlns:xlink="http://www.w3.org/1999/xlink" 
	 width="800px" height="800px" viewBox="0 0 70.074 70.074"
	 xml:space="preserve">
<g>
	<g>
		<polygon points="8.355,25.748 35.037,6.351 61.719,25.748 70.074,25.748 35.037,0.278 0,25.748 		"/>
		<g>
			<rect x="8.846" y="56.124" width="52.383" height="5.333"/>
			<rect x="1.362" y="64.463" width="67.353" height="5.333"/>
		</g>
		<g>
			<path d="M38.642,37.921c-0.563-0.397-1.51-0.78-2.833-1.141v8.369c1.816-0.084,3.066-0.746,3.754-1.987
				c0.358-0.639,0.541-1.384,0.541-2.212C40.105,39.622,39.617,38.616,38.642,37.921z"/>
			<path d="M31.302,27.296c-0.593,0.794-0.89,1.625-0.89,2.497c0,1.049,0.35,1.874,1.049,2.467c0.703,0.598,1.646,1.012,2.835,1.24
				v-7.481C32.897,26.075,31.897,26.495,31.302,27.296z"/>
			<path d="M35.037,17.762c-10.105,0-18.296,8.193-18.296,18.293c0,10.105,8.191,18.299,18.296,18.299
				c10.105,0,18.297-8.193,18.297-18.299C53.334,25.953,45.143,17.762,35.037,17.762z M40.218,46.188
				c-1.018,0.649-2.489,1.09-4.407,1.3v3.089h-1.511v-3.089c-3.089-0.196-5.186-1.291-6.288-3.275
				c-0.605-1.072-0.907-2.519-0.907-4.348h2.815c0.087,1.455,0.315,2.519,0.691,3.188c0.661,1.2,1.892,1.871,3.688,2.017v-8.673
				c-2.303-0.438-4.003-1.161-5.104-2.182c-1.099-1.021-1.647-2.432-1.647-4.232c0-1.609,0.591-3.064,1.776-4.355
				c1.182-1.302,2.84-1.958,4.975-1.981v-2.114h1.511v2.088c2.109,0.145,3.734,0.766,4.863,1.867
				c1.129,1.098,1.722,2.542,1.774,4.338h-2.785c-0.073-0.807-0.292-1.505-0.65-2.086c-0.668-1.072-1.733-1.633-3.2-1.689v7.75
				c2.464,0.69,4.134,1.339,5.014,1.943c1.428,0.997,2.145,2.471,2.145,4.428C42.971,42.989,42.052,44.996,40.218,46.188z"/>
		</g>
	</g>
</g>
</svg>