<?xml version="1.0" encoding="iso-8859-1"?>
<!-- Uploaded to: SVG Repo, www.svgrepo.com, Generator: SVG Repo Mixer Tools -->
<!DOCTYPE svg PUBLIC "-//W3C//DTD SVG 1.1//EN" "http://www.w3.org/Graphics/SVG/1.1/DTD/svg11.dtd">
<svg fill="#000000" version="1.1" id="Capa_1" xmlns="http://www.w3.org/2000/svg" xmlns:xlink="http://www.w3.org/1999/xlink" 
	 width="800px" height="800px" viewBox="0 0 194.889 194.889"
	 xml:space="preserve">
<g>
	<path d="M190.85,81.476c0.741-4.424,1.228-9.58-1.156-13.65c-2.197-3.75-9.565-5.858-12.817-8.163
		c-9.337-6.616-18.693-13.2-28.126-19.679c-18.248-12.532-36.434-23.933-53.089-38.621c-0.401-0.354-0.818-0.514-1.226-0.586
		c-1.011-0.798-2.368-1.114-3.623-0.303C74.792,10.833,59.43,22.345,44.495,34.208C32.633,43.629,12.809,55.777,6.181,69.83
		c-0.302,0.641-0.347,1.238-0.295,1.801c-0.563,0.501-0.915,1.203-0.798,2.115c2.502,19.413-0.948,40.349-1.516,59.887
		c-0.535,18.383,0.631,36.529,0.637,54.832c0,0.831,0.72,1.428,1.466,1.539c0.416,0.437,0.986,0.728,1.696,0.724
		c9.124-0.048,19.733,2.541,28.475-0.011c0.909-0.265,1.387-1.161,1.372-2.014c0.592-0.422,0.759-1.27,0.181-1.916
		c-14.31-16.014-4.195-36.656-4.187-55.876c0.001-1.449-0.996-2.221-2.103-2.391c-0.226-0.225-0.498-0.401-0.832-0.416
		c-2.066-0.081-4.189-0.148-5.661-1.758c-1.298-1.419-1.382-3.983-1.288-5.771c0.106-2,0.908-3.945,2.417-5.269
		c1.856-1.627,4.475,0.646,6.296,0.943c1.45,0.236,3.005-0.972,2.71-2.409c0.3,0.186,0.626,0.34,1.02,0.41
		c0.741,0.131,1.294-0.195,1.566-0.89c2.191-5.585,3.492-11.992,5.249-17.941c4.619-15.636,15.146-19.592,30.813-20.93
		c16.873-1.441,33.928-2.03,50.744,0.253c21.625,2.936,26.153,18.096,28.376,37.113c0.33,2.824,3.363,3.784,5.244,2.82
		c0.886-0.222,1.766-0.518,2.67-0.566c3.688-0.194,6.858,1.41,8.843,4.58c1.331,2.127,0.89,4.809-0.386,6.813
		c-1.637,2.575-4.76,0.704-7.024,1.573c-1.367,0.524-2.291,2.078-1.413,3.473c0.139,0.221,0.33,0.369,0.493,0.558
		c0.236,18.116,5.541,42.466-4.641,58.511c-1.318,2.079,0.429,4.591,2.688,4.684c7.922,0.329,15.868-1.83,23.629,0.432
		c1.571,0.458,2.754-0.149,3.412-1.149c1.989-0.341,3.748-2.055,3.019-4.56c-6.381-21.939-0.357-49.907-0.275-72.501
		C188.824,104.679,188.889,93.184,190.85,81.476z M164.136,187.86c3.023-7.357,3.489-15.53,3.681-23.503
		c0.242-10.143,1.365-21.802-2.688-31.355c2.56,0.131,5.381-0.892,7.105-2.468c3.423-3.133,4.353-7.812,3.431-12.229
		c-1.029-4.933-5.884-8.966-10.671-9.867c-1.584-0.298-3.886-0.229-6.009,0.324c-1.399-14.589-5.082-28.76-18.683-36.488
		c-19.087-10.845-49.939-5.329-70.615-3.478c-14.073,1.26-25.842,5.398-30.871,19.273c-0.991,2.735-7.247,17.853-5.429,23.808
		c-2.578-2.343-6.908-2.64-9.958-1.28c-3.428,1.527-5.013,5.716-5.435,9.167c-0.45,3.687,0.396,7.48,2.953,10.256
		c1.929,2.095,4.647,2.603,7.12,1.889c-0.58,9.756-8.765,43.2,0.095,53.821c-6.561-0.855-13.465-1.137-19.802-0.17
		c0.752-3.39,0.593-6.832,0.455-10.517c-0.445-11.911,0.323-23.829,0.653-35.739c0.586-21.093,5.261-44.95,1.644-65.812
		c0.163-0.164,0.341-0.282,0.486-0.494c9.013-13.187,25.556-23.922,37.884-33.801C63.704,27.796,78.986,17.896,93.413,6.805
		c6.096,11.15,18.782,18.71,28.949,25.511c18.271,12.222,36.476,24.443,54.434,37.132c9.491,6.706,6.154,12.43,4.915,22.187
		c-1.524,12-0.299,24.77-0.646,36.869c-0.531,18.499-4.333,40.519-0.148,58.99C175.432,186.46,169.773,187.404,164.136,187.86z"/>
	<path d="M140.749,187.269c-11.123-9.507,2.248-22.979-16.501-23.014c-9.118-0.018-18.423,2.225-27.581,2.62
		c-12.151,0.523-23.918,1.08-35.666,4.384c-1.655,0.465-2.297,2.016-2.041,3.594c-2.73,3.794-5.46,7.588-8.19,11.382
		c-1.899,0.67-1.748,4.052,0.508,3.75c0.115-0.015,0.237-0.037,0.354-0.054c0.068,0.046,0.108,0.113,0.194,0.145
		c11.264,4.061,25.097,1.543,36.923,1.368c16.686-0.245,33.066,0.967,49.637,2.767c1.923,0.209,2.952-1.518,2.912-3.171
		C141.949,189.826,141.988,188.328,140.749,187.269z M94.346,185.526c-10.1,0.048-22.015-1.017-32.684,0.497
		c0.927-0.901,1.68-2.004,2.156-3.376c4.516-13.009,26.985-8.634,38.76-8.984c7.843-0.234,27.126-6.689,26.237,5.207
		c-0.236,3.162,0.645,5.834,2.177,8.124C118.859,185.453,106.592,185.47,94.346,185.526z"/>
	<path d="M135.061,89.175c-15.609-11.512-44.184-9.123-62.481-7.761c-20.54,1.529-25.362,19.551-26.706,37.442
		c-0.038,0.511,0.072,0.921,0.244,1.279c0.039,0.852,0.606,1.665,1.661,1.615c30.555-1.448,61.278,4.024,91.679-1.292
		C155.989,117.565,142.715,94.819,135.061,89.175z M129.669,114.755c-8.912,1.017-18.014,1.443-26.972,1.84
		c-17.221,0.762-34.382-2.802-51.311,0.773c0.768-7.771,2.641-14.92,6.404-21.871c4.93-9.106,18.689-8.153,27.137-8.095
		c13.954,0.096,31.868-1.3,44.296,5.678c3.243,2.218,5.776,5.076,7.6,8.572C142.611,110.903,138.991,113.69,129.669,114.755z"/>
	<path d="M64.366,143.928c-7.418-7.818-29.06-12.929-30.974,0.069c-1.173,7.968,5.515,11.579,12.463,11.315
		c5.866-0.222,16.334-2.405,20.476-7.014C67.942,146.507,66.611,143.852,64.366,143.928z M38.95,145.688
		c-0.477-6.347,12.655-3.16,20.132,0.039C51.646,148.788,39.561,153.821,38.95,145.688z"/>
	<path d="M127.105,146.264c-0.168,0.737,0.086,1.646,0.814,2.004c0.257,0.126,0.456,0.196,0.743,0.227
		c0.002,0,0.005,0.001,0.005,0.001c0.66,5.392,11.482,5.397,15.206,5.109c5.627-0.435,12.508-3.257,12.495-9.816
		C156.34,127.696,129.63,135.162,127.105,146.264z M150.922,144.992c-1.431,3.221-7.864,3.093-10.678,3.025
		c-2.616-0.062-5.733-1.752-8.42-1.995c2.648-2.699,6.189-4.489,9.71-5.719c2.224-0.777,4.559-1.11,6.844-0.451
		C150.131,140.358,151.691,143.261,150.922,144.992z"/>
</g>
</svg>