<?xml version="1.0" encoding="iso-8859-1"?>
<!-- Uploaded to: SVG Repo, www.svgrepo.com, Generator: SVG Repo Mixer Tools -->
<svg height="800px" width="800px" version="1.1" id="Layer_1" xmlns="http://www.w3.org/2000/svg" xmlns:xlink="http://www.w3.org/1999/xlink" 
	 viewBox="0 0 508 508" xml:space="preserve">
<path style="fill:#2C2C2C;" d="M504,378.8c0,68.8-56.8,125.2-125.6,125.2H128.8C60,504,4,447.6,4,378.8V129.2C4,60.4,59.6,4,128.8,4
	h249.6C447.2,4,504,60,504,129.2L504,378.8L504,378.8z"/>
<path style="fill:#FFFFFF;" d="M386,213.2c0,16-12.8,29.2-28.8,29.2s-28.8-13.2-28.8-29.2s12.8-29.2,28.8-29.2S386,197.2,386,213.2
	 M374.4,262.8l-34.8,30.4c0.4,2.4,0.8,4.8,0.8,7.2c0,26-20.8,46.8-46,46.8c-22,0-40.4-15.6-44.8-36.4l-86.4-29.6
	c-6.8,5.2-15.2,8.4-24.4,8.4c-22.4,0-40.8-18.4-40.8-41.2s18.4-41.2,40.8-41.2c19.2,0,35.6,13.6,39.6,32L262,268
	c8-8.4,19.2-13.6,31.6-14l12.4-38.4c0-0.8,0-1.6,0-2.4c0-29.2,23.2-52.8,52-52.8s52,23.6,52,52.8C409.6,236,394.8,255.6,374.4,262.8
	 M163.6,234.4c-4.8-8.8-14-14.8-24.8-14.8c-15.6,0-28.4,12.8-28.4,28.8s12.8,28.8,28.4,28.8c2.8,0,5.6-0.4,8.4-1.2l-13.6-4.8
	c-10.8-6-14.8-19.6-9.2-30.8c6-11.2,19.6-15.2,30.4-9.2L163.6,234.4z M316.8,213.2c0,22.8,18,40.8,40.4,40.8s40.4-18.4,40.4-40.8
	c0-22.8-18-41.2-40.4-41.2S316.8,190.4,316.8,213.2 M317.6,304.8c0-17.2-13.6-31.2-30.8-31.2c-2.4,0-4.8,0.4-6.8,0.8l17.2,6
	c10.8,6,14.8,19.6,9.2,30.8c-6,11.2-19.6,15.2-30.4,9.2l-18.4-6.4c4,12.8,15.6,22,29.6,22C304,336,317.6,322,317.6,304.8"/>
<path d="M379.2,508H129.6C58,508,0,450,0,378.8V129.2C0,58,58,0,129.6,0h249.6C450,0,508,58,508,129.2v249.6
	C508,450,450.4,508,379.2,508z M129.6,8C62.4,8,8,62.4,8,129.2v249.6C8,445.6,62.4,500,129.6,500h249.6
	c66.4,0,120.8-54.4,120.8-121.2V129.2C500,62.4,446,8,379.2,8H129.6z"/>
<path d="M370.4,484h-232c-62,0-114.8-52.4-114.8-114V138C23.6,76,76,23.6,138.4,23.6h230.4c2.4,0,4,1.6,4,4s-1.6,4-4,4H138.4
	C80.8,32,32,80.4,32,138v232c0,57.6,48.8,106,106.8,106h232c58.4,0,105.6-47.6,105.6-106V258c0-2.4,1.6-4,4-4s4,1.6,4,4v112
	C484,433.2,433.2,484,370.4,484z"/>
<path d="M447.6,65.2c-1.2,0-2-0.4-2.8-1.2c-20-20-49.6-32-77.6-32c-2.4,0-4-1.6-4-4s1.6-4,4-4c30,0,62,13.2,83.2,34.4
	c1.6,1.6,1.6,4,0,5.6C449.6,64.8,448.4,65.2,447.6,65.2z"/>
<path d="M480,234c-2.4,0-4-1.6-4-4v-59.2c0-2.4,1.6-4,4-4s4,1.6,4,4V230C484,232.4,482.4,234,480,234z"/>
</svg>